#Produced by Art of Illusion 3.0.3, Fri Oct 20 21:32:51 CEST 2017
g Cylinder_1
usemtl tete
v 0 -3 0
v 5 -3 0
v 4.97592 -3 -0.49009
v 4.90393 -3 -0.97545
v 4.7847 -3 -1.45142
v 4.6194 -3 -1.91342
v 4.40961 -3 -2.35698
v 4.15735 -3 -2.77785
v 3.86505 -3 -3.17197
v 3.53553 -3 -3.53553
v 3.17197 -3 -3.86505
v 2.77785 -3 -4.15735
v 2.35698 -3 -4.40961
v 1.91342 -3 -4.6194
v 1.45142 -3 -4.7847
v 0.97545 -3 -4.90393
v 0.49009 -3 -4.97592
v 0 -3 -5
v -0.49009 -3 -4.97592
v -0.97545 -3 -4.90393
v -1.45142 -3 -4.7847
v -1.91342 -3 -4.6194
v -2.35698 -3 -4.40961
v -2.77785 -3 -4.15735
v -3.17197 -3 -3.86505
v -3.53553 -3 -3.53553
v -3.86505 -3 -3.17197
v -4.15735 -3 -2.77785
v -4.40961 -3 -2.35698
v -4.6194 -3 -1.91342
v -4.7847 -3 -1.45142
v -4.90393 -3 -0.97545
v -4.97592 -3 -0.49009
v -5 -3 0
v -4.97592 -3 0.49009
v -4.90393 -3 0.97545
v -4.7847 -3 1.45142
v -4.6194 -3 1.91342
v -4.40961 -3 2.35698
v -4.15735 -3 2.77785
v -3.86505 -3 3.17197
v -3.53553 -3 3.53553
v -3.17197 -3 3.86505
v -2.77785 -3 4.15735
v -2.35698 -3 4.40961
v -1.91342 -3 4.6194
v -1.45142 -3 4.7847
v -0.97545 -3 4.90393
v -0.49009 -3 4.97592
v 0 -3 5
v 0.49009 -3 4.97592
v 0.97545 -3 4.90393
v 1.45142 -3 4.7847
v 1.91342 -3 4.6194
v 2.35698 -3 4.40961
v 2.77785 -3 4.15735
v 3.17197 -3 3.86505
v 3.53553 -3 3.53553
v 3.86505 -3 3.17197
v 4.15735 -3 2.77785
v 4.40961 -3 2.35698
v 4.6194 -3 1.91342
v 4.7847 -3 1.45142
v 4.90393 -3 0.97545
v 4.97592 -3 0.49009
v 0.05 3 0
v 0.04976 3 -0.0049
v 0.04904 3 -0.00975
v 0.04785 3 -0.01451
v 0.04619 3 -0.01913
v 0.0441 3 -0.02357
v 0.04157 3 -0.02778
v 0.03865 3 -0.03172
v 0.03536 3 -0.03536
v 0.03172 3 -0.03865
v 0.02778 3 -0.04157
v 0.02357 3 -0.0441
v 0.01913 3 -0.04619
v 0.01451 3 -0.04785
v 0.00975 3 -0.04904
v 0.0049 3 -0.04976
v 0 3 -0.05
v -0.0049 3 -0.04976
v -0.00975 3 -0.04904
v -0.01451 3 -0.04785
v -0.01913 3 -0.04619
v -0.02357 3 -0.0441
v -0.02778 3 -0.04157
v -0.03172 3 -0.03865
v -0.03536 3 -0.03536
v -0.03865 3 -0.03172
v -0.04157 3 -0.02778
v -0.0441 3 -0.02357
v -0.04619 3 -0.01913
v -0.04785 3 -0.01451
v -0.04904 3 -0.00975
v -0.04976 3 -0.0049
v -0.05 3 0
v -0.04976 3 0.0049
v -0.04904 3 0.00975
v -0.04785 3 0.01451
v -0.04619 3 0.01913
v -0.0441 3 0.02357
v -0.04157 3 0.02778
v -0.03865 3 0.03172
v -0.03536 3 0.03536
v -0.03172 3 0.03865
v -0.02778 3 0.04157
v -0.02357 3 0.0441
v -0.01913 3 0.04619
v -0.01451 3 0.04785
v -0.00975 3 0.04904
v -0.0049 3 0.04976
v 0 3 0.05
v 0.0049 3 0.04976
v 0.00975 3 0.04904
v 0.01451 3 0.04785
v 0.01913 3 0.04619
v 0.02357 3 0.0441
v 0.02778 3 0.04157
v 0.03172 3 0.03865
v 0.03536 3 0.03536
v 0.03865 3 0.03172
v 0.04157 3 0.02778
v 0.0441 3 0.02357
v 0.04619 3 0.01913
v 0.04785 3 0.01451
v 0.04904 3 0.00975
v 0.04976 3 0.0049
v 0 3 0
vn 0 -1 0
vn 0 -1 0
vn 0.77137 0.63638 0
vn 0 -1 0
vn 0.76766 0.63638 -0.07561
vn 0 -1 0
vn 0.75655 0.63638 -0.15049
vn 0 -1 0
vn 0.73816 0.63638 -0.22392
vn 0 -1 0
vn 0.71266 0.63638 -0.29519
vn 0 -1 0
vn 0.68029 0.63638 -0.36362
vn 0 -1 0
vn 0.64137 0.63638 -0.42855
vn 0 -1 0
vn 0.59628 0.63638 -0.48935
vn 0 -1 0
vn 0.54544 0.63638 -0.54544
vn 0 -1 0
vn 0.48935 0.63638 -0.59628
vn 0 -1 0
vn 0.42855 0.63638 -0.64137
vn 0 -1 0
vn 0.36362 0.63638 -0.68029
vn 0 -1 0
vn 0.29519 0.63638 -0.71266
vn 0 -1 0
vn 0.22392 0.63638 -0.73816
vn 0 -1 0
vn 0.15049 0.63638 -0.75655
vn 0 -1 0
vn 0.07561 0.63638 -0.76766
vn 0 -1 0
vn 0 0.63638 -0.77137
vn 0 -1 0
vn -0.07561 0.63638 -0.76766
vn 0 -1 0
vn -0.15049 0.63638 -0.75655
vn 0 -1 0
vn -0.22392 0.63638 -0.73816
vn 0 -1 0
vn -0.29519 0.63638 -0.71266
vn 0 -1 0
vn -0.36362 0.63638 -0.68029
vn 0 -1 0
vn -0.42855 0.63638 -0.64137
vn 0 -1 0
vn -0.48935 0.63638 -0.59628
vn 0 -1 0
vn -0.54544 0.63638 -0.54544
vn 0 -1 0
vn -0.59628 0.63638 -0.48935
vn 0 -1 0
vn -0.64137 0.63638 -0.42855
vn 0 -1 0
vn -0.68029 0.63638 -0.36362
vn 0 -1 0
vn -0.71266 0.63638 -0.29519
vn 0 -1 0
vn -0.73816 0.63638 -0.22392
vn 0 -1 0
vn -0.75655 0.63638 -0.15049
vn 0 -1 0
vn -0.76766 0.63638 -0.07561
vn 0 -1 0
vn -0.77137 0.63638 -0
vn 0 -1 0
vn -0.76766 0.63638 0.07561
vn 0 -1 0
vn -0.75655 0.63638 0.15049
vn 0 -1 0
vn -0.73816 0.63638 0.22392
vn 0 -1 0
vn -0.71266 0.63638 0.29519
vn 0 -1 0
vn -0.68029 0.63638 0.36362
vn 0 -1 0
vn -0.64137 0.63638 0.42855
vn 0 -1 0
vn -0.59628 0.63638 0.48935
vn 0 -1 0
vn -0.54544 0.63638 0.54544
vn 0 -1 0
vn -0.48935 0.63638 0.59628
vn 0 -1 0
vn -0.42855 0.63638 0.64137
vn 0 -1 0
vn -0.36362 0.63638 0.68029
vn 0 -1 0
vn -0.29519 0.63638 0.71266
vn 0 -1 0
vn -0.22392 0.63638 0.73816
vn 0 -1 0
vn -0.15049 0.63638 0.75655
vn 0 -1 0
vn -0.07561 0.63638 0.76766
vn 0 -1 0
vn -0 0.63638 0.77137
vn 0 -1 0
vn 0.07561 0.63638 0.76766
vn 0 -1 0
vn 0.15049 0.63638 0.75655
vn 0 -1 0
vn 0.22392 0.63638 0.73816
vn 0 -1 0
vn 0.29519 0.63638 0.71266
vn 0 -1 0
vn 0.36362 0.63638 0.68029
vn 0 -1 0
vn 0.42855 0.63638 0.64137
vn 0 -1 0
vn 0.48935 0.63638 0.59628
vn 0 -1 0
vn 0.54544 0.63638 0.54544
vn 0 -1 0
vn 0.59628 0.63638 0.48935
vn 0 -1 0
vn 0.64137 0.63638 0.42855
vn 0 -1 0
vn 0.68029 0.63638 0.36362
vn 0 -1 0
vn 0.71266 0.63638 0.29519
vn 0 -1 0
vn 0.73816 0.63638 0.22392
vn 0 -1 0
vn 0.75655 0.63638 0.15049
vn 0 -1 0
vn 0.76766 0.63638 0.07561
vn 0 1 0
vn 0.77137 0.63638 0
vn 0 1 0
vn 0.76766 0.63638 -0.07561
vn 0 1 0
vn 0.75655 0.63638 -0.15049
vn 0 1 0
vn 0.73816 0.63638 -0.22392
vn 0 1 0
vn 0.71266 0.63638 -0.29519
vn 0 1 0
vn 0.68029 0.63638 -0.36362
vn 0 1 0
vn 0.64137 0.63638 -0.42855
vn 0 1 0
vn 0.59628 0.63638 -0.48935
vn 0 1 0
vn 0.54544 0.63638 -0.54544
vn 0 1 0
vn 0.48935 0.63638 -0.59628
vn 0 1 0
vn 0.42855 0.63638 -0.64137
vn 0 1 0
vn 0.36362 0.63638 -0.68029
vn 0 1 0
vn 0.29519 0.63638 -0.71266
vn 0 1 0
vn 0.22392 0.63638 -0.73816
vn 0 1 0
vn 0.15049 0.63638 -0.75655
vn 0 1 0
vn 0.07561 0.63638 -0.76766
vn 0 1 0
vn 0 0.63638 -0.77137
vn 0 1 0
vn -0.07561 0.63638 -0.76766
vn 0 1 0
vn -0.15049 0.63638 -0.75655
vn 0 1 0
vn -0.22392 0.63638 -0.73816
vn 0 1 0
vn -0.29519 0.63638 -0.71266
vn 0 1 0
vn -0.36362 0.63638 -0.68029
vn 0 1 0
vn -0.42855 0.63638 -0.64137
vn 0 1 0
vn -0.48935 0.63638 -0.59628
vn 0 1 0
vn -0.54544 0.63638 -0.54544
vn 0 1 0
vn -0.59628 0.63638 -0.48935
vn 0 1 0
vn -0.64137 0.63638 -0.42855
vn 0 1 0
vn -0.68029 0.63638 -0.36362
vn 0 1 0
vn -0.71266 0.63638 -0.29519
vn 0 1 0
vn -0.73816 0.63638 -0.22392
vn 0 1 0
vn -0.75655 0.63638 -0.15049
vn 0 1 0
vn -0.76766 0.63638 -0.07561
vn 0 1 0
vn -0.77137 0.63638 -0
vn 0 1 0
vn -0.76766 0.63638 0.07561
vn 0 1 0
vn -0.75655 0.63638 0.15049
vn 0 1 0
vn -0.73816 0.63638 0.22392
vn 0 1 0
vn -0.71266 0.63638 0.29519
vn 0 1 0
vn -0.68029 0.63638 0.36362
vn 0 1 0
vn -0.64137 0.63638 0.42855
vn 0 1 0
vn -0.59628 0.63638 0.48935
vn 0 1 0
vn -0.54544 0.63638 0.54544
vn 0 1 0
vn -0.48935 0.63638 0.59628
vn 0 1 0
vn -0.42855 0.63638 0.64137
vn 0 1 0
vn -0.36362 0.63638 0.68029
vn 0 1 0
vn -0.29519 0.63638 0.71266
vn 0 1 0
vn -0.22392 0.63638 0.73816
vn 0 1 0
vn -0.15049 0.63638 0.75655
vn 0 1 0
vn -0.07561 0.63638 0.76766
vn 0 1 0
vn 0 0.63638 0.77137
vn 0 1 0
vn 0.07561 0.63638 0.76766
vn 0 1 0
vn 0.15049 0.63638 0.75655
vn 0 1 0
vn 0.22392 0.63638 0.73816
vn 0 1 0
vn 0.29519 0.63638 0.71266
vn 0 1 0
vn 0.36362 0.63638 0.68029
vn 0 1 0
vn 0.42855 0.63638 0.64137
vn 0 1 0
vn 0.48935 0.63638 0.59628
vn 0 1 0
vn 0.54544 0.63638 0.54544
vn 0 1 0
vn 0.59628 0.63638 0.48935
vn 0 1 0
vn 0.64137 0.63638 0.42855
vn 0 1 0
vn 0.68029 0.63638 0.36362
vn 0 1 0
vn 0.71266 0.63638 0.29519
vn 0 1 0
vn 0.73816 0.63638 0.22392
vn 0 1 0
vn 0.75655 0.63638 0.15049
vn 0 1 0
vn 0.76766 0.63638 0.07561
vn 0 1 0
f 3//4 2//2 1//1
f 4//6 3//4 1//1
f 5//8 4//6 1//1
f 6//10 5//8 1//1
f 7//12 6//10 1//1
f 8//14 7//12 1//1
f 9//16 8//14 1//1
f 10//18 9//16 1//1
f 11//20 10//18 1//1
f 12//22 11//20 1//1
f 13//24 12//22 1//1
f 14//26 13//24 1//1
f 15//28 14//26 1//1
f 16//30 15//28 1//1
f 17//32 16//30 1//1
f 18//34 17//32 1//1
f 19//36 18//34 1//1
f 20//38 19//36 1//1
f 21//40 20//38 1//1
f 22//42 21//40 1//1
f 23//44 22//42 1//1
f 24//46 23//44 1//1
f 25//48 24//46 1//1
f 26//50 25//48 1//1
f 27//52 26//50 1//1
f 28//54 27//52 1//1
f 29//56 28//54 1//1
f 30//58 29//56 1//1
f 31//60 30//58 1//1
f 32//62 31//60 1//1
f 33//64 32//62 1//1
f 34//66 33//64 1//1
f 35//68 34//66 1//1
f 36//70 35//68 1//1
f 37//72 36//70 1//1
f 38//74 37//72 1//1
f 39//76 38//74 1//1
f 40//78 39//76 1//1
f 41//80 40//78 1//1
f 42//82 41//80 1//1
f 43//84 42//82 1//1
f 44//86 43//84 1//1
f 45//88 44//86 1//1
f 46//90 45//88 1//1
f 47//92 46//90 1//1
f 48//94 47//92 1//1
f 49//96 48//94 1//1
f 50//98 49//96 1//1
f 51//100 50//98 1//1
f 52//102 51//100 1//1
f 53//104 52//102 1//1
f 54//106 53//104 1//1
f 55//108 54//106 1//1
f 56//110 55//108 1//1
f 57//112 56//110 1//1
f 58//114 57//112 1//1
f 59//116 58//114 1//1
f 60//118 59//116 1//1
f 61//120 60//118 1//1
f 62//122 61//120 1//1
f 63//124 62//122 1//1
f 64//126 63//124 1//1
f 65//128 64//126 1//1
f 2//2 65//128 1//1
f 66//131 2//3 3//5
f 67//133 3//5 4//7
f 68//135 4//7 5//9
f 69//137 5//9 6//11
f 70//139 6//11 7//13
f 71//141 7//13 8//15
f 72//143 8//15 9//17
f 73//145 9//17 10//19
f 74//147 10//19 11//21
f 75//149 11//21 12//23
f 76//151 12//23 13//25
f 77//153 13//25 14//27
f 78//155 14//27 15//29
f 79//157 15//29 16//31
f 80//159 16//31 17//33
f 81//161 17//33 18//35
f 82//163 18//35 19//37
f 83//165 19//37 20//39
f 84//167 20//39 21//41
f 85//169 21//41 22//43
f 86//171 22//43 23//45
f 87//173 23//45 24//47
f 88//175 24//47 25//49
f 89//177 25//49 26//51
f 90//179 26//51 27//53
f 91//181 27//53 28//55
f 92//183 28//55 29//57
f 93//185 29//57 30//59
f 94//187 30//59 31//61
f 95//189 31//61 32//63
f 96//191 32//63 33//65
f 97//193 33//65 34//67
f 98//195 34//67 35//69
f 99//197 35//69 36//71
f 100//199 36//71 37//73
f 101//201 37//73 38//75
f 102//203 38//75 39//77
f 103//205 39//77 40//79
f 104//207 40//79 41//81
f 105//209 41//81 42//83
f 106//211 42//83 43//85
f 107//213 43//85 44//87
f 108//215 44//87 45//89
f 109//217 45//89 46//91
f 110//219 46//91 47//93
f 111//221 47//93 48//95
f 112//223 48//95 49//97
f 113//225 49//97 50//99
f 114//227 50//99 51//101
f 115//229 51//101 52//103
f 116//231 52//103 53//105
f 117//233 53//105 54//107
f 118//235 54//107 55//109
f 119//237 55//109 56//111
f 120//239 56//111 57//113
f 121//241 57//113 58//115
f 122//243 58//115 59//117
f 123//245 59//117 60//119
f 124//247 60//119 61//121
f 125//249 61//121 62//123
f 126//251 62//123 63//125
f 127//253 63//125 64//127
f 128//255 64//127 65//129
f 129//257 65//129 2//3
f 66//131 3//5 67//133
f 67//133 4//7 68//135
f 68//135 5//9 69//137
f 69//137 6//11 70//139
f 70//139 7//13 71//141
f 71//141 8//15 72//143
f 72//143 9//17 73//145
f 73//145 10//19 74//147
f 74//147 11//21 75//149
f 75//149 12//23 76//151
f 76//151 13//25 77//153
f 77//153 14//27 78//155
f 78//155 15//29 79//157
f 79//157 16//31 80//159
f 80//159 17//33 81//161
f 81//161 18//35 82//163
f 82//163 19//37 83//165
f 83//165 20//39 84//167
f 84//167 21//41 85//169
f 85//169 22//43 86//171
f 86//171 23//45 87//173
f 87//173 24//47 88//175
f 88//175 25//49 89//177
f 89//177 26//51 90//179
f 90//179 27//53 91//181
f 91//181 28//55 92//183
f 92//183 29//57 93//185
f 93//185 30//59 94//187
f 94//187 31//61 95//189
f 95//189 32//63 96//191
f 96//191 33//65 97//193
f 97//193 34//67 98//195
f 98//195 35//69 99//197
f 99//197 36//71 100//199
f 100//199 37//73 101//201
f 101//201 38//75 102//203
f 102//203 39//77 103//205
f 103//205 40//79 104//207
f 104//207 41//81 105//209
f 105//209 42//83 106//211
f 106//211 43//85 107//213
f 107//213 44//87 108//215
f 108//215 45//89 109//217
f 109//217 46//91 110//219
f 110//219 47//93 111//221
f 111//221 48//95 112//223
f 112//223 49//97 113//225
f 113//225 50//99 114//227
f 114//227 51//101 115//229
f 115//229 52//103 116//231
f 116//231 53//105 117//233
f 117//233 54//107 118//235
f 118//235 55//109 119//237
f 119//237 56//111 120//239
f 120//239 57//113 121//241
f 121//241 58//115 122//243
f 122//243 59//117 123//245
f 123//245 60//119 124//247
f 124//247 61//121 125//249
f 125//249 62//123 126//251
f 126//251 63//125 127//253
f 127//253 64//127 128//255
f 128//255 65//129 129//257
f 129//257 2//3 66//131
f 130//258 66//130 67//132
f 130//258 67//132 68//134
f 130//258 68//134 69//136
f 130//258 69//136 70//138
f 130//258 70//138 71//140
f 130//258 71//140 72//142
f 130//258 72//142 73//144
f 130//258 73//144 74//146
f 130//258 74//146 75//148
f 130//258 75//148 76//150
f 130//258 76//150 77//152
f 130//258 77//152 78//154
f 130//258 78//154 79//156
f 130//258 79//156 80//158
f 130//258 80//158 81//160
f 130//258 81//160 82//162
f 130//258 82//162 83//164
f 130//258 83//164 84//166
f 130//258 84//166 85//168
f 130//258 85//168 86//170
f 130//258 86//170 87//172
f 130//258 87//172 88//174
f 130//258 88//174 89//176
f 130//258 89//176 90//178
f 130//258 90//178 91//180
f 130//258 91//180 92//182
f 130//258 92//182 93//184
f 130//258 93//184 94//186
f 130//258 94//186 95//188
f 130//258 95//188 96//190
f 130//258 96//190 97//192
f 130//258 97//192 98//194
f 130//258 98//194 99//196
f 130//258 99//196 100//198
f 130//258 100//198 101//200
f 130//258 101//200 102//202
f 130//258 102//202 103//204
f 130//258 103//204 104//206
f 130//258 104//206 105//208
f 130//258 105//208 106//210
f 130//258 106//210 107//212
f 130//258 107//212 108//214
f 130//258 108//214 109//216
f 130//258 109//216 110//218
f 130//258 110//218 111//220
f 130//258 111//220 112//222
f 130//258 112//222 113//224
f 130//258 113//224 114//226
f 130//258 114//226 115//228
f 130//258 115//228 116//230
f 130//258 116//230 117//232
f 130//258 117//232 118//234
f 130//258 118//234 119//236
f 130//258 119//236 120//238
f 130//258 120//238 121//240
f 130//258 121//240 122//242
f 130//258 122//242 123//244
f 130//258 123//244 124//246
f 130//258 124//246 125//248
f 130//258 125//248 126//250
f 130//258 126//250 127//252
f 130//258 127//252 128//254
f 130//258 128//254 129//256
f 130//258 129//256 66//130
g Cylinder_2
usemtl corps
v 0 -10.5 0
v 1.5 -10.5 0
v 1.47118 -10.5 -0.29264
v 1.38582 -10.5 -0.57403
v 1.2472 -10.5 -0.83336
v 1.06066 -10.5 -1.06066
v 0.83336 -10.5 -1.2472
v 0.57403 -10.5 -1.38582
v 0.29264 -10.5 -1.47118
v 0 -10.5 -1.5
v -0.29264 -10.5 -1.47118
v -0.57403 -10.5 -1.38582
v -0.83336 -10.5 -1.2472
v -1.06066 -10.5 -1.06066
v -1.2472 -10.5 -0.83336
v -1.38582 -10.5 -0.57403
v -1.47118 -10.5 -0.29264
v -1.5 -10.5 0
v -1.47118 -10.5 0.29264
v -1.38582 -10.5 0.57403
v -1.2472 -10.5 0.83336
v -1.06066 -10.5 1.06066
v -0.83336 -10.5 1.2472
v -0.57403 -10.5 1.38582
v -0.29264 -10.5 1.47118
v 0 -10.5 1.5
v 0.29264 -10.5 1.47118
v 0.57403 -10.5 1.38582
v 0.83336 -10.5 1.2472
v 1.06066 -10.5 1.06066
v 1.2472 -10.5 0.83336
v 1.38582 -10.5 0.57403
v 1.47118 -10.5 0.29264
v 1.5 -0.5 0
v 1.47118 -0.5 -0.29264
v 1.38582 -0.5 -0.57403
v 1.2472 -0.5 -0.83336
v 1.06066 -0.5 -1.06066
v 0.83336 -0.5 -1.2472
v 0.57403 -0.5 -1.38582
v 0.29264 -0.5 -1.47118
v 0 -0.5 -1.5
v -0.29264 -0.5 -1.47118
v -0.57403 -0.5 -1.38582
v -0.83336 -0.5 -1.2472
v -1.06066 -0.5 -1.06066
v -1.2472 -0.5 -0.83336
v -1.38582 -0.5 -0.57403
v -1.47118 -0.5 -0.29264
v -1.5 -0.5 0
v -1.47118 -0.5 0.29264
v -1.38582 -0.5 0.57403
v -1.2472 -0.5 0.83336
v -1.06066 -0.5 1.06066
v -0.83336 -0.5 1.2472
v -0.57403 -0.5 1.38582
v -0.29264 -0.5 1.47118
v 0 -0.5 1.5
v 0.29264 -0.5 1.47118
v 0.57403 -0.5 1.38582
v 0.83336 -0.5 1.2472
v 1.06066 -0.5 1.06066
v 1.2472 -0.5 0.83336
v 1.38582 -0.5 0.57403
v 1.47118 -0.5 0.29264
v 0 -0.5 0
vn 0 -1 0
vn 0 -1 0
vn 1 0 0
vn 0 -1 0
vn 0.98079 0 -0.19509
vn 0 -1 0
vn 0.92388 0 -0.38268
vn 0 -1 0
vn 0.83147 0 -0.55557
vn 0 -1 0
vn 0.70711 0 -0.70711
vn 0 -1 0
vn 0.55557 0 -0.83147
vn 0 -1 0
vn 0.38268 0 -0.92388
vn 0 -1 0
vn 0.19509 0 -0.98079
vn 0 -1 0
vn -0 0 -1
vn 0 -1 0
vn -0.19509 0 -0.98079
vn 0 -1 0
vn -0.38268 0 -0.92388
vn 0 -1 0
vn -0.55557 0 -0.83147
vn 0 -1 0
vn -0.70711 0 -0.70711
vn 0 -1 0
vn -0.83147 0 -0.55557
vn 0 -1 0
vn -0.92388 0 -0.38268
vn 0 -1 0
vn -0.98079 0 -0.19509
vn 0 -1 0
vn -1 0 0
vn 0 -1 0
vn -0.98079 0 0.19509
vn 0 -1 0
vn -0.92388 0 0.38268
vn 0 -1 0
vn -0.83147 0 0.55557
vn 0 -1 0
vn -0.70711 0 0.70711
vn 0 -1 0
vn -0.55557 0 0.83147
vn 0 -1 0
vn -0.38268 0 0.92388
vn 0 -1 0
vn -0.19509 0 0.98079
vn 0 -1 0
vn -0 0 1
vn 0 -1 0
vn 0.19509 0 0.98079
vn 0 -1 0
vn 0.38268 0 0.92388
vn 0 -1 0
vn 0.55557 0 0.83147
vn 0 -1 0
vn 0.70711 0 0.70711
vn 0 -1 0
vn 0.83147 0 0.55557
vn 0 -1 0
vn 0.92388 0 0.38268
vn 0 -1 0
vn 0.98079 0 0.19509
vn 0 1 0
vn 1 0 0
vn 0 1 0
vn 0.98079 0 -0.19509
vn 0 1 0
vn 0.92388 0 -0.38268
vn 0 1 0
vn 0.83147 0 -0.55557
vn 0 1 0
vn 0.70711 0 -0.70711
vn 0 1 0
vn 0.55557 0 -0.83147
vn 0 1 0
vn 0.38268 0 -0.92388
vn 0 1 0
vn 0.19509 0 -0.98079
vn 0 1 0
vn 0 0 -1
vn 0 1 0
vn -0.19509 0 -0.98079
vn 0 1 0
vn -0.38268 0 -0.92388
vn 0 1 0
vn -0.55557 0 -0.83147
vn 0 1 0
vn -0.70711 0 -0.70711
vn 0 1 0
vn -0.83147 0 -0.55557
vn 0 1 0
vn -0.92388 0 -0.38268
vn 0 1 0
vn -0.98079 0 -0.19509
vn 0 1 0
vn -1 0 0
vn 0 1 0
vn -0.98079 0 0.19509
vn 0 1 0
vn -0.92388 0 0.38268
vn 0 1 0
vn -0.83147 0 0.55557
vn 0 1 0
vn -0.70711 0 0.70711
vn 0 1 0
vn -0.55557 0 0.83147
vn 0 1 0
vn -0.38268 0 0.92388
vn 0 1 0
vn -0.19509 0 0.98079
vn 0 1 0
vn -0 0 1
vn 0 1 0
vn 0.19509 0 0.98079
vn 0 1 0
vn 0.38268 0 0.92388
vn 0 1 0
vn 0.55557 0 0.83147
vn 0 1 0
vn 0.70711 0 0.70711
vn 0 1 0
vn 0.83147 0 0.55557
vn 0 1 0
vn 0.92388 0 0.38268
vn 0 1 0
vn 0.98079 0 0.19509
vn 0 1 0
f 133//262 132//260 131//259
f 134//264 133//262 131//259
f 135//266 134//264 131//259
f 136//268 135//266 131//259
f 137//270 136//268 131//259
f 138//272 137//270 131//259
f 139//274 138//272 131//259
f 140//276 139//274 131//259
f 141//278 140//276 131//259
f 142//280 141//278 131//259
f 143//282 142//280 131//259
f 144//284 143//282 131//259
f 145//286 144//284 131//259
f 146//288 145//286 131//259
f 147//290 146//288 131//259
f 148//292 147//290 131//259
f 149//294 148//292 131//259
f 150//296 149//294 131//259
f 151//298 150//296 131//259
f 152//300 151//298 131//259
f 153//302 152//300 131//259
f 154//304 153//302 131//259
f 155//306 154//304 131//259
f 156//308 155//306 131//259
f 157//310 156//308 131//259
f 158//312 157//310 131//259
f 159//314 158//312 131//259
f 160//316 159//314 131//259
f 161//318 160//316 131//259
f 162//320 161//318 131//259
f 163//322 162//320 131//259
f 132//260 163//322 131//259
f 164//325 132//261 133//263
f 165//327 133//263 134//265
f 166//329 134//265 135//267
f 167//331 135//267 136//269
f 168//333 136//269 137//271
f 169//335 137//271 138//273
f 170//337 138//273 139//275
f 171//339 139//275 140//277
f 172//341 140//277 141//279
f 173//343 141//279 142//281
f 174//345 142//281 143//283
f 175//347 143//283 144//285
f 176//349 144//285 145//287
f 177//351 145//287 146//289
f 178//353 146//289 147//291
f 179//355 147//291 148//293
f 180//357 148//293 149//295
f 181//359 149//295 150//297
f 182//361 150//297 151//299
f 183//363 151//299 152//301
f 184//365 152//301 153//303
f 185//367 153//303 154//305
f 186//369 154//305 155//307
f 187//371 155//307 156//309
f 188//373 156//309 157//311
f 189//375 157//311 158//313
f 190//377 158//313 159//315
f 191//379 159//315 160//317
f 192//381 160//317 161//319
f 193//383 161//319 162//321
f 194//385 162//321 163//323
f 195//387 163//323 132//261
f 164//325 133//263 165//327
f 165//327 134//265 166//329
f 166//329 135//267 167//331
f 167//331 136//269 168//333
f 168//333 137//271 169//335
f 169//335 138//273 170//337
f 170//337 139//275 171//339
f 171//339 140//277 172//341
f 172//341 141//279 173//343
f 173//343 142//281 174//345
f 174//345 143//283 175//347
f 175//347 144//285 176//349
f 176//349 145//287 177//351
f 177//351 146//289 178//353
f 178//353 147//291 179//355
f 179//355 148//293 180//357
f 180//357 149//295 181//359
f 181//359 150//297 182//361
f 182//361 151//299 183//363
f 183//363 152//301 184//365
f 184//365 153//303 185//367
f 185//367 154//305 186//369
f 186//369 155//307 187//371
f 187//371 156//309 188//373
f 188//373 157//311 189//375
f 189//375 158//313 190//377
f 190//377 159//315 191//379
f 191//379 160//317 192//381
f 192//381 161//319 193//383
f 193//383 162//321 194//385
f 194//385 163//323 195//387
f 195//387 132//261 164//325
f 196//388 164//324 165//326
f 196//388 165//326 166//328
f 196//388 166//328 167//330
f 196//388 167//330 168//332
f 196//388 168//332 169//334
f 196//388 169//334 170//336
f 196//388 170//336 171//338
f 196//388 171//338 172//340
f 196//388 172//340 173//342
f 196//388 173//342 174//344
f 196//388 174//344 175//346
f 196//388 175//346 176//348
f 196//388 176//348 177//350
f 196//388 177//350 178//352
f 196//388 178//352 179//354
f 196//388 179//354 180//356
f 196//388 180//356 181//358
f 196//388 181//358 182//360
f 196//388 182//360 183//362
f 196//388 183//362 184//364
f 196//388 184//364 185//366
f 196//388 185//366 186//368
f 196//388 186//368 187//370
f 196//388 187//370 188//372
f 196//388 188//372 189//374
f 196//388 189//374 190//376
f 196//388 190//376 191//378
f 196//388 191//378 192//380
f 196//388 192//380 193//382
f 196//388 193//382 194//384
f 196//388 194//384 195//386
f 196//388 195//386 164//324
